HIERARCHY
ROOT SpineBase
{
  OFFSET 0.000000 0.000000 0.000000
  CHANNELS 6 Xposition Yposition Zposition Zrotation Xrotation Yrotation
  JOINT SpineMid
  {
    OFFSET -0.000000 27.004126 0.000000
    CHANNELS 3 Zrotation Xrotation Yrotation
    JOINT SpineShoulder
    {
      OFFSET -0.030595 20.197723 -0.633433
      CHANNELS 3 Zrotation Xrotation Yrotation
      JOINT Neck
      {
        OFFSET -0.019005 6.718257 -0.490359
        CHANNELS 3 Zrotation Xrotation Yrotation
        JOINT Head
        {
          OFFSET -2.436239 12.841117 -0.524372
          CHANNELS 3 Zrotation Xrotation Yrotation
          End Site
          {
            OFFSET 0 0 0
          }
        }
      }
      JOINT ShoulderLeft
      {
        OFFSET -14.543657 -1.834144 10.289089
        CHANNELS 3 Zrotation Xrotation Yrotation
        JOINT ElbowLeft
        {
          OFFSET -2.405641 -24.630392 -0.229665
          CHANNELS 3 Zrotation Xrotation Yrotation
          JOINT WristLeft
          {
            OFFSET -4.707882 -18.561975 3.396125
            CHANNELS 3 Zrotation Xrotation Yrotation
            JOINT HandLeft
            {
              OFFSET 0.807632 2.147687 2.427548
              CHANNELS 3 Zrotation Xrotation Yrotation
              JOINT HandTipLeft
              {
                OFFSET 0.121267 -0.182452 -0.093633
                CHANNELS 3 Zrotation Xrotation Yrotation
                End Site
                {
                  OFFSET 0 0 0
                }
              }
              JOINT ThumbLeft
              {
                OFFSET 2.288815 1.365597 -1.411839
                CHANNELS 3 Zrotation Xrotation Yrotation
                End Site
                {
                  OFFSET 0 0 0
                }
              }
            }
          }
        }
      }
      JOINT ShoulderRight
      {
        OFFSET 9.722238 -3.968362 -10.307034
        CHANNELS 3 Zrotation Xrotation Yrotation
        JOINT ElbowRight
        {
          OFFSET 2.265599 -23.869254 -2.107354
          CHANNELS 3 Zrotation Xrotation Yrotation
          JOINT WristRight
          {
            OFFSET 0.231721 -23.635137 -5.239198
            CHANNELS 3 Zrotation Xrotation Yrotation
            JOINT HandRight
            {
              OFFSET -0.404543 -9.073849 -0.298479
              CHANNELS 3 Zrotation Xrotation Yrotation
              JOINT HandTipRight
              {
                OFFSET -0.504850 -7.603284 0.182243
                CHANNELS 3 Zrotation Xrotation Yrotation
                End Site
                {
                  OFFSET 0 0 0
                }
              }
              JOINT ThumbRight
              {
                OFFSET -2.904577 -1.755704 -1.176489
                CHANNELS 3 Zrotation Xrotation Yrotation
                End Site
                {
                  OFFSET 0 0 0
                }
              }
            }
          }
        }
      }
    }
  }
  JOINT HipLeft
  {
    OFFSET -4.967420 0.858919 0.364095
    CHANNELS 3 Zrotation Xrotation Yrotation
    JOINT KneeLeft
    {
      OFFSET 6.048840 -40.292387 -1.937554
      CHANNELS 3 Zrotation Xrotation Yrotation
      JOINT AnkleLeft
      {
        OFFSET -2.565292 -39.048221 4.472824
        CHANNELS 3 Zrotation Xrotation Yrotation
        JOINT FootLeft
        {
          OFFSET -7.058149 -5.958434 -0.055229
          CHANNELS 3 Zrotation Xrotation Yrotation
          End Site
          {
            OFFSET 0 0 0
          }
        }
      }
    }
  }
  JOINT HipRight
  {
    OFFSET 4.388232 1.051237 -6.351768
    CHANNELS 3 Zrotation Xrotation Yrotation
    JOINT KneeRight
    {
      OFFSET -2.010134 -41.736804 2.309590
      CHANNELS 3 Zrotation Xrotation Yrotation
      JOINT AnkleRight
      {
        OFFSET -2.643591 -42.531127 7.686803
        CHANNELS 3 Zrotation Xrotation Yrotation
        JOINT FootRight
        {
          OFFSET -7.629964 -3.071885 -10.263075
          CHANNELS 3 Zrotation Xrotation Yrotation
          End Site
          {
            OFFSET 0 0 0
          }
        }
      }
    }
  }
}
MOTION
Frames: 6
Frame Time: 0.033333
33.299138 89.595912 381.104997 0.000000 0.000000 35.672306 -0.000000 0.000000 -35.672306 -0.000000 0.000000 0.000000 -0.000000 0.000000 0.000000 0.000000 0.000000 0.000000 -0.000000 0.000000 0.000000 -0.000000 0.000000 0.000000 -0.000000 0.000000 0.000000 -0.000000 0.000000 0.000000 0.000000 0.000000 0.000000 0.000000 0.000000 0.000000 -0.000000 0.000000 0.000000 -0.000000 0.000000 0.000000 -0.000000 0.000000 0.000000 -0.000000 0.000000 0.000000 0.000000 0.000000 0.000000 0.000000 0.000000 0.000000 -0.000000 0.000000 -35.672306 -0.000000 0.000000 0.000000 -0.000000 0.000000 0.000000 0.000000 0.000000 0.000000 -0.000000 0.000000 -35.672306 -0.000000 0.000000 0.000000 -0.000000 0.000000 0.000000 0.000000 0.000000 0.000000
33.101711 89.603661 380.966061 -0.243154 0.034318 35.677194 0.177504 -0.169688 -35.676858 -0.000000 0.000000 0.000000 -0.000000 0.000000 0.000000 0.000000 0.000000 0.000000 0.301113 0.835375 -0.086611 -4.711874 -11.958788 1.566122 8.359944 2.502721 -4.321723 -18.878601 -11.313337 -4.507370 0.000000 0.000000 0.000000 0.000000 0.000000 0.000000 -0.000000 0.000000 0.000000 -0.000000 0.000000 0.000000 -0.000000 0.000000 0.000000 -0.002099 1.010697 -0.067157 0.000000 0.000000 0.000000 0.000000 0.000000 0.000000 -1.363914 -1.771082 -36.018385 -1.704123 3.460541 0.096181 7.773814 -1.647884 0.964242 0.000000 0.000000 0.000000 0.177504 -0.169688 -35.676858 -0.000000 0.000000 0.000000 0.686513 -0.663347 -0.664770 0.000000 0.000000 0.000000
32.936245 89.610698 380.841620 -0.441912 0.070754 35.659379 0.317809 -0.315105 -35.658232 -0.000000 0.000000 0.000000 -0.000000 0.000000 0.000000 0.000000 0.000000 0.000000 0.544154 1.500286 -0.158794 -8.935608 -23.339368 2.249245 16.948945 0.181185 -11.018632 -28.170898 -5.122954 2.153900 0.000000 0.000000 0.000000 0.000000 0.000000 0.000000 -0.000000 0.000000 0.000000 -0.000000 0.000000 0.000000 -0.000000 0.000000 0.000000 -0.151456 1.845398 -0.123771 0.000000 0.000000 0.000000 0.000000 0.000000 0.000000 -2.100739 -2.912325 -36.234391 -3.179314 5.638004 0.232788 14.072499 -3.055226 2.434802 0.000000 0.000000 0.000000 1.228317 -0.590338 -35.615992 -1.469909 -0.953876 -0.106209 1.920518 -0.668361 -1.269995 0.000000 0.000000 0.000000
32.802742 89.617021 380.731672 -0.596369 0.109311 35.618827 0.421143 -0.436173 -35.616655 -0.000000 0.000000 0.000000 -0.000000 0.000000 0.000000 0.000000 0.000000 0.000000 0.728329 1.994356 -0.214374 -12.256549 -32.509827 2.275657 23.201063 -6.588561 -18.403066 -38.309458 1.233134 13.112385 0.000000 0.000000 0.000000 0.000000 0.000000 0.000000 -0.000000 0.000000 0.000000 -0.269843 -0.972973 0.048077 -0.279277 1.820562 -0.058923 0.096789 1.641998 -0.149337 0.000000 0.000000 0.000000 0.000000 0.000000 0.000000 -2.275255 -3.504534 -36.301760 -4.240266 6.544595 0.317374 18.457571 -4.164577 4.173575 0.000000 0.000000 0.000000 1.591735 -0.850054 -35.554105 -1.957906 -1.158391 -0.150309 2.755543 -1.140738 -1.891482 0.000000 0.000000 0.000000
32.701201 89.622631 380.636218 -0.706609 0.149992 35.555508 0.487663 -0.532901 -35.552315 -0.000000 0.000000 0.000000 -0.000000 0.000000 0.000000 0.000000 0.000000 0.000000 0.852719 2.316522 -0.251612 -14.283562 -38.683072 2.138037 25.970919 -13.679692 -24.648012 -48.047434 3.309095 24.807878 0.000000 0.000000 0.000000 0.000000 0.000000 0.000000 -0.000000 0.000000 0.000000 -0.302473 -1.150772 0.052848 -0.227017 2.164338 -0.071276 -0.379081 1.917197 -0.176883 0.000000 0.000000 0.000000 0.000000 0.000000 0.000000 -1.907253 -3.578908 -36.212137 -4.779042 6.177253 0.286897 20.679031 -5.001950 5.978837 0.000000 0.000000 0.000000 1.788579 -1.086162 -35.472257 -2.280374 -1.180695 -0.184734 3.502210 -1.700387 -2.494263 0.000000 0.000000 0.000000
32.631623 89.627528 380.555258 -0.772702 0.192802 35.469392 0.517459 -0.605380 -35.465358 -0.000000 0.000000 0.000000 -0.000000 0.000000 0.000000 0.000000 0.000000 0.000000 0.916265 2.464834 -0.269188 -14.735904 -41.789327 2.309262 26.383764 -18.154822 -28.742584 -55.374889 0.344794 34.079056 0.000000 0.000000 0.000000 0.000000 0.000000 0.000000 -0.000000 0.000000 0.000000 -0.306118 -1.253766 0.052344 -0.103060 2.374153 -0.082468 -1.109922 2.040187 -0.193691 0.000000 0.000000 0.000000 0.000000 0.000000 0.000000 -0.974579 -3.120250 -35.963551 -4.794908 4.527279 0.125881 20.676153 -5.631843 7.735440 0.000000 0.000000 0.000000 1.819092 -1.299170 -35.371877 -2.436812 -1.020447 -0.208287 4.157354 -2.343215 -3.071912 0.000000 0.000000 0.000000
